<?xml version="1.0" encoding="utf-8"?>
<!-- Generator: Adobe Illustrator 25.2.0, SVG Export Plug-In . SVG Version: 6.00 Build 0)  -->
<svg version="1.1" id="Layer_1" xmlns="http://www.w3.org/2000/svg" xmlns:xlink="http://www.w3.org/1999/xlink" x="0px" y="0px"
	 viewBox="0 0 120.6 33.6" style="enable-background:new 0 0 120.6 33.6;" xml:space="preserve">
<style type="text/css">
	.st0{fill:#FFFFFF;}
	.st1{fill:#8B9C43;}
</style>
<g>
	<path class="st0" d="M23.9,16.5c0-3.6,3-6.6,6.6-6.6s6.6,3,6.6,6.6s-3,6.6-6.6,6.6S23.9,20.2,23.9,16.5z M25.3,16.5
		c0,2.8,2.4,5.1,5.3,5.1s5.1-2.4,5.1-5.2s-2.3-5.1-5.1-5.1C27.7,11.3,25.4,13.6,25.3,16.5L25.3,16.5L25.3,16.5z"/>
	<path class="st0" d="M42.3,18.7l3,4.2h-1.8l-2.8-4h-0.3v4H39v-9.8h1.7c1-0.1,2,0.2,2.8,0.7c0.6,0.5,1,1.3,1,2.1
		c0,0.6-0.2,1.3-0.6,1.8C43.6,18.2,43,18.6,42.3,18.7z M40.5,17.6H41c1.4,0,2.1-0.5,2.1-1.6s-0.7-1.5-2-1.5h-0.5L40.5,17.6z"/>
	<path class="st0" d="M52.1,14.5h-3.9v2.4H52v1.4h-3.8v3.3h3.9V23h-5.4v-9.8h5.4L52.1,14.5z"/>
	<path class="st0" d="M58.9,17.8h4v0.3c0,0.7-0.1,1.3-0.3,2c-0.2,0.5-0.4,1-0.7,1.4c-0.9,1-2.1,1.6-3.5,1.5c-1.3,0-2.6-0.5-3.5-1.5
		c-0.9-0.9-1.5-2.2-1.5-3.6c0-2.8,2.3-5.1,5.1-5.1c0,0,0,0,0.1,0c0.7,0,1.5,0.2,2.2,0.5c0.7,0.4,1.4,0.9,1.9,1.5l-1.1,1
		c-0.7-1-1.7-1.6-2.9-1.6c-1,0-2,0.3-2.7,1.1c-0.7,0.7-1,1.7-1,2.6c0,1,0.4,2,1.2,2.7c0.6,0.6,1.5,1,2.4,1c0.7,0,1.5-0.2,2-0.7
		c0.6-0.4,0.9-1.1,1-1.8H59v-1.3H58.9z"/>
	<path class="st0" d="M64.3,17.9c0-1.3,0.5-2.6,1.5-3.6s2.3-1.5,3.6-1.5c2.8,0,5.1,2.3,5.1,5.1c0,1.4-0.5,2.7-1.5,3.6
		c-1.9,1.9-5,2-7,0.2C64.8,20.8,64.2,19.4,64.3,17.9z M65.8,17.9c0,1,0.4,2,1.1,2.7c1.4,1.4,3.7,1.4,5.1,0c0.6-0.7,1-1.6,1-2.6
		s-0.3-1.9-1-2.6c-0.7-0.7-1.6-1.1-2.6-1.1s-1.9,0.4-2.6,1.1C66.1,16,65.8,17,65.8,17.9L65.8,17.9z"/>
	<path class="st0" d="M76.2,22.9V12.4l7.2,7.5v-6.8h1.5v10.4L77.7,16v6.9H76.2z"/>
	<path class="st0" d="M87.3,22.2c0-0.2,0.1-0.5,0.3-0.6c0.3-0.3,0.9-0.3,1.2,0l0,0c0.2,0.2,0.3,0.4,0.3,0.6s-0.1,0.5-0.3,0.6
		C88.6,23,88.4,23,88.1,23C87.7,23,87.3,22.7,87.3,22.2L87.3,22.2z"/>
	<path class="st0" d="M96.2,17.8h4v0.3c0,0.7-0.1,1.3-0.3,2c-0.2,0.5-0.5,1-0.9,1.5c-0.9,1-2.1,1.6-3.5,1.5c-1.3,0-2.6-0.5-3.5-1.5
		c-1-0.9-1.5-2.2-1.5-3.6c0-2.8,2.3-5.1,5.1-5.1c0,0,0,0,0.1,0c0.7,0,1.5,0.2,2.2,0.5c0.7,0.4,1.4,0.9,1.9,1.5l-1,1
		c-0.7-1-1.8-1.6-2.9-1.6c-1,0-1.9,0.4-2.6,1.1s-1.1,1.7-1.1,2.6c0,1,0.4,2,1.2,2.7c0.6,0.6,1.5,1,2.4,1c0.7,0,1.5-0.2,2-0.7
		c0.6-0.4,0.9-1.1,1-1.8h-2.5L96.2,17.8L96.2,17.8z"/>
	<path class="st0" d="M101.5,17.9c0-1.3,0.5-2.6,1.5-3.6s2.3-1.5,3.6-1.5c2.8,0,5.1,2.3,5.1,5.1c0,1.4-0.5,2.7-1.5,3.6
		c-1.9,1.9-5,2-7.1,0.2C102.1,20.8,101.5,19.4,101.5,17.9z M103,17.9c0,1,0.4,2,1.1,2.7s1.6,1,2.5,1c1,0,1.9-0.4,2.6-1.1
		s1.1-1.6,1.1-2.6s-0.3-1.9-1-2.6c-1.4-1.4-3.7-1.4-5.2,0C103.4,16,103,16.9,103,17.9L103,17.9z"/>
	<path class="st0" d="M113.6,13.1l2.7,6.8l2.8-6.8h1.6l-4.4,10.6L112,13.1H113.6z"/>
</g>
<path class="st1" d="M17.5,28.1c-0.1-0.1-0.9,0-1.4-0.1c-0.6-0.1-0.8-0.5-1.5-0.6c-0.3,0-0.6,0.2-0.6,0.2L13.8,27
	c0,0,0.4-0.2,0.3-0.5c-0.1-0.3-0.3-0.3-0.6-0.3c-0.2,0-0.9,0.3-1.9,0.2c-0.9-0.1-2.1-0.7-2.1-0.7s0-0.5,0.1-0.8s0.3-0.4,0.3-0.4
	s0.3,0.8,0.4,1c0.2,0.3,0.3-0.2,0.3-0.2s0.2,0.4,0.4,0.5s0.4-0.3,0.8-0.5c0.3-0.1,0.7-0.1,0.7-0.1l0.3-0.8c0,0,0.9-0.1,1.2-0.8
	c0.3-0.7,0.2-1.6,0.2-1.6s0.4,0.1,0.4,0s-0.4-0.6-1.1-0.9c0.5-0.2,1-0.4,1-0.5s-0.4-0.3-0.4-0.3s1.6-0.3,1.6-0.5s-0.4,0-0.8-0.1
	c-0.4,0-0.8-0.3-0.8-0.3s-0.4,0.3-0.8,0.3c-0.4,0-2.1-0.3-2.1-0.3s0.7-0.3,0.9-0.5l0.6-0.4h-0.6c-0.1-0.2-0.3-0.3-0.7-0.3
	s-0.5-0.5-0.7-0.5s-0.2,0.5-0.2,0.5s-0.5-0.3-1-0.2c0.2-0.3,1-0.4,1-0.7c0-0.1-0.6-0.5-0.6-0.5s1.3,0,1.3-0.2s-0.6-0.3-0.6-0.3
	s0.2-0.2,0.7-0.2c0.4,0,0.8,0.3,1.1,0.3s0.5-0.1,0.5-0.1l-0.3-0.6c0,0,1.4,0.7,1.7,0.2c0.1-0.2,0-0.4,0-0.4s0.3,0.1,0.4-0.1
	c0.1-0.2-0.3-0.6-0.8-0.9c-0.4-0.3-1.2-0.3-1.4-0.6c0.6,0.1,0.5-0.3,0.9-0.3c0.4-0.1,0.7,0.3,1.1,0.5c0.6,0.1,1.1,0.2,1.2,0
	c0.1-0.2-0.3-0.2-0.4-0.5C15,13.3,15,13,14.8,12.8s-0.5-0.4-0.5-0.4s0.9-0.2,0.9-0.5c0-0.1-1.7-0.3-3-0.6c-0.9-0.1-2.1-0.3-2.4-0.4
	c-0.1,0-0.1,0-0.2-0.1c0.3-0.2,0.6-0.4,0.6-0.5s-0.7,0.1-0.9,0.1c0-0.1,0-0.1,0-0.1S9.2,9.8,10.5,10c0.7,0.1,1.4,0.9,1.7,0.8
	c0.2-0.1,0-0.3,0-0.3s0.4,0.1,0.4,0c0.1-0.1-0.4-0.9-0.7-1.1c0.3-0.1,0.2-0.3,0-0.4c-0.2,0-0.9-0.4-1.2-0.5H9.6c0,0,1.3-0.2,1.5-0.3
	l0,0c0.2-0.1,0.4-0.2,0.4-0.3c0-0.2-0.5-0.3-1.1-0.4S9,7.5,9,7.5s0-0.2,0-0.7c0-0.3,0.7-1,0.6-1.2C9.5,5.4,9,5.6,9,5.6s0-0.5,0-0.7
	C8.9,4.5,9.3,4.2,9.3,4c0-0.2,0-0.4-0.2-0.4C9,3.5,8.8,3.7,8.8,3.7S8.7,3.5,8.9,3.3c0.3-0.2,0.9-0.5,0.9-0.6c0-0.2-0.8-0.3-1-0.7
	C8.6,1.5,8.6,0.5,8.6,0l0,0c0,0.7-0.2,2.3-0.3,2.8c0,0.3-0.6,0.4-0.6,0.7C7.7,3.8,8,3.9,8,3.9s-0.9-0.2-1.2,0c0,0,1.5,0.5,1.5,1.4
	c-0.5-0.2-0.9-0.1-0.9,0s0.4,0.2,0.5,0.5C7.6,5.7,7.1,5.6,6.7,5.6s-1,0.1-1,0.1S6.2,6.2,7,6.1C8,6,8.3,6.4,8.3,6.4v0.9
	c0,0-1,0.3-1.2,0.3c-0.2,0-0.4,0.2-0.4,0.2S6.1,7.8,5.6,8S5,8.5,5,8.5s0.7,0.3,1.2,0.4c1,0.1,2,0.1,2,0.1S7.6,9.3,6.6,9.2
	c0.3,0.2,0.2,0.5,0.2,0.5s-0.6-0.2-1,0c0,0,0.4,0.1,0.4,0.4c-0.8-0.2-0.8-0.8-1-0.9C5,9.1,4.8,9.2,4.7,9.3c0,0.2,0.1,0.4,0.1,0.4
	C4.4,9.5,4,9.7,4,9.7l0.4,0.6c0,0-0.9-0.1-1.2,0s-0.4,0.3-0.4,0.4c0,0,2.3,0.9,3.4,0.5c0.6-0.2,1.9-0.7,1.9-0.7V12
	c0,0-0.7,0.2-1.5,0c-0.5-0.1-1.1-0.4-1.2-0.3c-0.1,0.1,0.2,0.3,0.2,0.5c-0.7-0.2-1.5,0.3-1.8,0.3c-0.5,0.1-1,0-1,0s0.2,0.6,0.6,0.9
	c0.4,0.2,1,0.2,1,0.2s-0.1,0.2,0.1,0.3c0.2,0,0.4-0.6,0.7-0.6c0.6,0,0.9-0.5,0.9-0.5s0.1,0.4,0.3,0.5c0.2,0.1,0.6,0,0.6,0
	s0,0.2,0.3,0.2c0.2,0.1,0.8-0.3,0.8-0.3L8,14.3c0,0-0.5-0.1-0.9-0.1c-0.2,0,0,0.5,0,0.5s-0.4,0-0.6,0.2c-0.1,0.1-0.1,0.4-0.1,0.4
	S5.9,15,5.2,15.1c-0.3,0-0.5-0.3-0.7-0.3s-0.2,0.3-0.4,0.3c-0.4,0-0.7-0.3-0.7-0.3s0.1,0.6,0.3,0.9c0.2,0.3,0.6,0.6,0.6,0.6
	c-0.6,0-1,0.4-1,0.5c0.1,0.1,0.5,0.6,0.5,0.6s-0.7,0.2-0.4,0.4c0.4,0.3,0.3,0.6,0.5,0.6c0.2,0,0.3-0.3,0.7-0.5
	c0.2-0.1,0.5-0.1,0.5-0.1s-0.3,0.3,0,0.6c0.2,0.2,0.9,0,1,0.1c-0.3,0.2-0.4,0.5-0.7,0.6c-0.4,0.1-1,0-1.5,0.2
	c-0.4,0.1-0.8,0.5-0.9,0.4C3.3,20,3.8,20,3.8,20l-0.6,0.2c0,0,1.3,0.7,1.7,0.6c0.6-0.2,1-0.5,1.6-0.6c0.5,0,1.5,0,1.5,0
	s-1.4,0.9-1.6,1c-0.3,0.2-0.8,0.2-0.8,0.3c0,0.2,0.5,0.3,0.5,0.3s-1.3,0.7-2.5,0.8c-0.3,0-1,0.1-1,0.5l-0.9,0.2c0,0,0.9,0.3,1.4,0.3
	c0.3,0,0.4,0.3,0.4,0.3s0.1,0.6-0.2,0.9C3,24.7,3.1,25,3.3,25s0.4-0.2,0.4-0.2s0.2,0.3,0.5,0.3c0.2,0.1,0.5,0,0.5,0
	s-0.4,0.4-0.1,0.6c0.2,0.2,0.6-0.2,0.6-0.2s0.3,0.3,0.5,0.4S6,25.8,6,25.8v-0.9c0,0,0.3,0.6,0.8,0.7c0.4,0.1,0.6,0,0.6,0
	s-0.1-0.1-0.1-0.3c0-0.1,0.1-0.2,0.3-0.2c0.2,0,0.3,0.2,0.2,0.3c0,0.1-0.1,1-0.1,1s-1.2,0.3-1.4,0.3C6.1,26.8,5.9,27,5.8,27
	c-0.3,0-0.7-0.2-0.8,0c-0.1,0.1,0.6,0.4,0.6,0.4s-0.5,0.1-0.9,0c-0.4-0.2-0.4,0.2-0.7,0.2c-0.2,0-0.6-0.2-0.6-0.1
	C3.3,27.7,3.5,28,3.5,28s-1.2-0.4-1.6-0.7c-0.1-0.1-0.3-0.6-0.4-0.6c-0.1,0-0.1,0.9-0.3,1.1C1,28.1,0,28.1,0,28.3
	c0,0.1,0.7,0.3,1.5,0.4c0.6,0.1,1.4,0.1,1.4,0.1s-0.5,0.3-1.1,0.4c-0.3,0-0.4,0.2-0.3,0.2c0.2,0.1,1.4,0,1.8-0.1
	c0.4-0.2,0.1,0.1-0.1,0.2c-0.3,0.1-0.9,0.1-0.8,0.3c0,0.2,0.6,0.3,0.9,0.3S4.1,30,4.1,30l1.5,0.5c0.4-0.2,0.2-0.6,0.4-1
	c0,0,0.4,0.1,0.7-0.1C7,29.2,7,29,7.3,28.9c0.3-0.1,0.5,0,0.5,0S7.7,29,7.3,29.4c-0.4,0.4-0.2,0.6-0.4,0.8c-0.4,0.3-0.6,0.5-0.3,0.6
	c0.4,0.1,0.6,0.4,0.6,0.4S6.9,31,6.6,31.1S6,31.3,5.7,31.2c-0.3,0-0.7-0.4-0.9-0.3c-0.3,0-0.6,0.3-0.6,0.3s0.2,0.3,0.7,0.3
	c0.8,0,1.3,0.2,1.3,0.2L5.8,32c0,0,0.4,0.2,0.8,0.2c0.3,0,0.8-0.1,0.9-0.1v1.4h2.4L9.7,30l0,0c0,0,0.6-0.1,1.2,0.2
	c0.5,0.2,0.9,0.9,1.6,1.2c0.4,0.2,0.9,0,0.9,0c-0.5-0.1-0.5-0.4-0.5-0.4s2.7,1.2,2.9,0.8c0.1-0.1-0.4-0.3-1.1-0.7L15,31
	c0,0,0.3,0.1,0.3-0.1s-1-0.7-1.7-1.1c-0.1,0-0.1-0.1-0.2-0.1c-0.2-0.1-0.2-0.4-0.2-0.4l-1.7-0.5c0,0,1.5,0.1,1.9,0.1
	c0.3,0,0.6,0,0.9,0c0.7,0.1,1.2,0.3,1.8,0.3c0.5,0,0.9-0.2,0.8-0.3c-0.2-0.1-0.8-0.4-0.8-0.4s1.1,0.2,1.1,0
	C17.2,28.2,17.6,28.2,17.5,28.1z"/>
</svg>
